# xmcd CD database file
#
# Track frame offsets:
#	150
#	24085
#	55969
#	81478
#	109903
#	147225
#	166697
#	199219
#	231441
#	235631
#	264075
#	296372
#
# Disc length: 4678 seconds
#
# Revision: 0
# Processed by: cddbd v1.5.2PL0 Copyright (c) Steve Scherf et al.
# Submitted via: CDex 1.78
#
DISCID=9c12440c
DTITLE=David Helbock's Random Control - Think Of Two
DYEAR=2013
DGENRE=Jazz
TTITLE0=Voa, Ilza
TTITLE1=Round Midnight
TTITLE2=Nas Quebradas
TTITLE3=Raise Four
TTITLE4=Musica das Nuvens e do Chao
TTITLE5=Trinkle Tinkle
TTITLE6=Tupizando
TTITLE7=Pannonica
TTITLE8=Palhinha
TTITLE9=Para Hermeto
TTITLE10=Floresta
TTITLE11=Think of One
EXTD=YEAR: 2013
EXTT0=
EXTT1=
EXTT2=
EXTT3=
EXTT4=
EXTT5=
EXTT6=
EXTT7=
EXTT8=
EXTT9=
EXTT10=
EXTT11=
PLAYORDER=
